<?xml version="1.0" encoding="UTF-8"?>
<!DOCTYPE svg PUBLIC "-//W3C//DTD SVG 1.1//EN" "http://www.w3.org/Graphics/SVG/1.1/DTD/svg11.dtd">
<!-- Creator: CorelDRAW 2020 (64-Bit) -->
<svg xmlns="http://www.w3.org/2000/svg" xml:space="preserve" width="11.6929in" height="8.26772in" version="1.1" style="shape-rendering:geometricPrecision; text-rendering:geometricPrecision; image-rendering:optimizeQuality; fill-rule:evenodd; clip-rule:evenodd"
viewBox="0 0 11692.91 8267.72"
 xmlns:xlink="http://www.w3.org/1999/xlink"
 xmlns:xodm="http://www.corel.com/coreldraw/odm/2003">
 <defs>
  <style type="text/css">
   <![CDATA[
    .fil2 {fill:#E31E24}
    .fil0 {fill:#DE2D24}
    .fil1 {fill:#406B2A}
    .fil3 {fill:#009846}
   ]]>
  </style>
 </defs>
 <g id="Layer_x0020_1">
  <metadata id="CorelCorpID_0Corel-Layer"/>
  <g id="_2203383054080">
   <path class="fil0" d="M1022.54 5717.25l-210.5 0 -64.24 117.12 -113.16 0 299.57 -530.7 123.41 0 85.72 530.7 -103.52 0 -17.29 -117.12zm-13.09 -88.94l-31.5 -213.46 -117.11 213.46 148.62 0zm560.22 15.57l109.7 16.68c-21.37,59.43 -53.61,104.87 -96.48,136.26 -42.74,31.5 -93.02,47.19 -150.58,47.19 -64.74,0 -115.39,-19.52 -151.82,-58.68 -36.45,-39.17 -54.74,-95.98 -54.74,-170.47 0,-60.41 12.23,-115.63 36.69,-165.78 24.46,-50.15 58.31,-88.57 101.79,-115.15 43.37,-26.56 90.55,-39.89 141.58,-39.89 57.44,0 103.76,15.44 139.21,46.2 35.46,30.88 56.21,72.76 62.52,126l-104.52 10.14c-5.8,-31 -16.92,-53.37 -33.35,-67.33 -16.42,-13.96 -38.29,-20.88 -65.72,-20.88 -30.02,0 -58.06,9.15 -84.11,27.56 -26.07,18.41 -46.83,47.19 -62.39,86.34 -15.68,39.04 -23.46,78.07 -23.46,117.12 0,42.61 10.12,75.6 30.38,98.82 20.26,23.23 45.59,34.84 75.74,34.84 28.17,0 53.85,-9.14 77.21,-27.54 23.46,-18.29 40.88,-45.46 52.37,-81.41zm475.49 73.37l-210.5 0 -64.25 117.12 -113.16 0 299.57 -530.7 123.42 0 85.72 530.7 -103.52 0 -17.29 -117.12zm-13.09 -88.94l-31.5 -213.46 -117.12 213.46 148.62 0zm177.02 206.06l111.19 -530.7 143.43 0c39.89,0 65.46,0.62 76.59,1.85 21.99,2.09 41.76,6.55 59.04,13.34 17.3,6.8 32.99,16.19 47.19,28.42 14.2,12.23 26.44,26.8 36.69,43.98 10.26,17.16 18.16,36.93 23.72,59.17 5.56,22.37 8.41,46.83 8.41,73.39 0,57.19 -11,107.85 -32.87,152.19 -21.87,44.23 -49.41,79.44 -82.52,105.51 -25.45,20.26 -58.18,35.2 -98.33,44.84 -22.73,5.31 -57.69,8.03 -104.89,8.03l-187.65 0zm126.87 -85.24l55.72 0c40.27,0 69.43,-2.47 87.45,-7.42 18.16,-4.94 34.72,-14.2 49.67,-27.79 21.62,-19.53 39.78,-45.59 54.6,-78.2 14.83,-32.62 22.24,-71.03 22.24,-115.26 0,-37.68 -6.18,-65.96 -18.41,-84.99 -12.23,-18.89 -27.31,-31.5 -45.34,-37.8 -12.59,-4.32 -34.96,-6.54 -67.33,-6.54l-63.61 0 -74.99 358zm383.7 85.24l111.17 -530.7 392.84 0 -18.53 88.94 -284.01 0 -26.06 120.08 275.22 0 -18.53 88.95 -276.09 0 -31.38 143.8 308.21 0 -18.53 88.94 -414.33 0zm776.54 0l-103.78 0 -19.64 -443.36 -84.13 443.36 -98.46 0 111.05 -530.7 155.66 0 16.3 364.8 166.9 -364.8 157.01 0 -96.74 530.7 -98.94 0 92.28 -440.28 -197.53 440.28zm554.3 0l-109.07 0 43.23 -206.8 -146.27 -323.91 117 0 65.84 149.73c15.68,35.95 26.18,61.89 31.5,77.82 8.89,-15.68 19.14,-32.37 31,-49.91l50.03 -70.15 74.49 -107.48 126.74 0 -243.36 334.16 -41.14 196.54z"/>
   <path class="fil1" d="M4445.07 5834.37l111.19 -530.7 371.34 0 -18.53 88.94 -262.51 0 -26.43 126.75 257.07 0 -18.54 88.94 -257.19 0 -47.31 226.07 -109.08 0zm464.37 -208.27c0,-31.38 4.69,-64.49 14.08,-99.33 12.35,-46.7 31.13,-87.09 56.33,-121.43 25.2,-34.34 57.07,-61.4 95.37,-81.41 38.41,-19.89 82.02,-29.89 131.06,-29.89 65.72,0 118.71,20.38 159.11,61.28 40.39,40.88 60.65,94.99 60.65,162.44 0,56.08 -13.09,110.32 -39.4,162.7 -26.31,52.49 -62.14,92.89 -107.24,121.19 -45.09,28.29 -96.1,42.37 -153.18,42.37 -49.42,0 -90.93,-11.24 -124.52,-33.72 -33.48,-22.49 -57.33,-50.29 -71.29,-83.52 -13.94,-33.23 -20.99,-66.83 -20.99,-100.67zm108.21 -2.11c0,36.57 11.12,67.21 33.23,91.79 22.23,24.7 51.38,37.06 87.59,37.06 29.39,0 57.68,-9.76 84.74,-29.15 27.18,-19.52 49.54,-49.04 67.33,-88.57 17.66,-39.65 26.56,-78.07 26.56,-115.63 0,-41.88 -11.24,-74.74 -33.6,-98.57 -22.48,-23.85 -51.02,-35.7 -85.74,-35.7 -53.23,0 -96.6,24.95 -130.07,74.74 -33.35,49.91 -50.03,104.51 -50.03,164.05zm521.57 210.38l-109.09 0 111.19 -530.7 235.45 0c40.53,0 72.02,4.2 94.63,12.48 22.49,8.41 40.65,23.59 54.6,45.83 13.84,22.24 20.76,49.04 20.76,80.67 0,45.22 -13.46,82.4 -40.52,111.69 -26.94,29.39 -67.82,47.56 -122.55,54.48 13.96,12.59 27.06,29.15 39.41,49.65 24.34,41.52 51.52,100.2 81.41,175.92l-117.11 0c-9.38,-29.89 -27.91,-76.46 -55.46,-139.83 -14.95,-34.22 -30.88,-57.33 -47.8,-69.06 -10.38,-7.04 -28.54,-10.5 -54.35,-10.5l-44.6 0 -45.95 219.39zm62.5 -298.71l57.94 0c58.68,0 97.59,-3.44 116.74,-10.5 19.27,-7.04 34.22,-18.03 45.08,-33.1 10.88,-14.94 16.31,-30.76 16.31,-47.19 0,-19.39 -7.78,-33.85 -23.47,-43.61 -9.64,-5.8 -30.52,-8.65 -62.63,-8.65l-120.08 0 -29.89 143.05zm927.37 108.22l109.7 16.68c-21.37,59.43 -53.61,104.87 -96.48,136.26 -42.73,31.5 -93.02,47.19 -150.58,47.19 -64.74,0 -115.39,-19.52 -151.82,-58.68 -36.45,-39.17 -54.74,-95.98 -54.74,-170.47 0,-60.41 12.23,-115.63 36.69,-165.78 24.46,-50.15 58.31,-88.57 101.79,-115.15 43.37,-26.56 90.55,-39.89 141.58,-39.89 57.44,0 103.76,15.44 139.21,46.2 35.46,30.88 56.21,72.76 62.52,126l-104.52 10.14c-5.8,-31 -16.92,-53.37 -33.35,-67.33 -16.42,-13.96 -38.29,-20.88 -65.72,-20.88 -30.02,0 -58.06,9.15 -84.12,27.56 -26.07,18.41 -46.83,47.19 -62.39,86.34 -15.68,39.04 -23.46,78.07 -23.46,117.12 0,42.61 10.13,75.6 30.38,98.82 20.26,23.23 45.59,34.84 75.74,34.84 28.17,0 53.85,-9.14 77.21,-27.54 23.46,-18.29 40.88,-45.46 52.37,-81.41zm238.68 190.49l-109.09 0 111.19 -530.7 235.45 0c40.53,0 72.02,4.2 94.63,12.48 22.49,8.41 40.65,23.59 54.6,45.83 13.84,22.24 20.76,49.04 20.76,80.67 0,45.22 -13.46,82.4 -40.52,111.69 -26.93,29.39 -67.81,47.56 -122.55,54.48 13.96,12.59 27.06,29.15 39.41,49.65 24.34,41.52 51.52,100.2 81.41,175.92l-117.12 0c-9.38,-29.89 -27.91,-76.46 -55.46,-139.83 -14.94,-34.22 -30.88,-57.33 -47.8,-69.06 -10.38,-7.04 -28.54,-10.5 -54.36,-10.5l-44.59 0 -45.95 219.39zm62.51 -298.71l57.94 0c58.68,0 97.59,-3.44 116.74,-10.5 19.27,-7.04 34.22,-18.03 45.09,-33.1 10.88,-14.94 16.31,-30.76 16.31,-47.19 0,-19.39 -7.78,-33.85 -23.47,-43.61 -9.64,-5.8 -30.52,-8.65 -62.63,-8.65l-120.07 0 -29.89 143.05zm371.59 90.44c0,-31.38 4.69,-64.49 14.08,-99.33 12.35,-46.7 31.13,-87.09 56.33,-121.43 25.2,-34.34 57.07,-61.4 95.37,-81.41 38.41,-19.89 82.02,-29.89 131.06,-29.89 65.72,0 118.71,20.38 159.11,61.28 40.39,40.88 60.65,94.99 60.65,162.44 0,56.08 -13.09,110.32 -39.4,162.7 -26.31,52.49 -62.14,92.89 -107.24,121.19 -45.09,28.29 -96.1,42.37 -153.18,42.37 -49.42,0 -90.93,-11.24 -124.52,-33.72 -33.47,-22.49 -57.33,-50.29 -71.29,-83.52 -13.95,-33.23 -20.99,-66.83 -20.99,-100.67zm108.21 -2.11c0,36.57 11.12,67.21 33.23,91.79 22.23,24.7 51.38,37.06 87.59,37.06 29.39,0 57.68,-9.76 84.74,-29.15 27.18,-19.52 49.54,-49.04 67.33,-88.57 17.66,-39.65 26.56,-78.07 26.56,-115.63 0,-41.88 -11.24,-74.74 -33.6,-98.57 -22.49,-23.85 -51.02,-35.7 -85.74,-35.7 -53.23,0 -96.6,24.95 -130.07,74.74 -33.35,49.91 -50.03,104.51 -50.03,164.05zm519.33 210.38l-109.07 0 111.17 -530.7 215.33 0c38.42,0 68.68,4.57 90.93,13.58 22.35,9.03 40.02,23.98 52.99,44.85 12.98,20.87 19.52,45.83 19.52,74.74 0,26.8 -5.19,52.87 -15.57,78.2 -10.37,25.45 -23.1,45.7 -38.17,60.9 -15.07,15.2 -31.26,26.69 -48.68,34.59 -17.28,7.78 -40.64,13.7 -70.17,17.91 -17.04,2.35 -49.17,3.58 -96.1,3.58l-69.8 0 -42.37 202.35zm60.9 -291.29l33.61 0c57.56,0 95.98,-3.58 115.25,-10.74 19.27,-7.18 34.46,-18.67 45.59,-34.48 11,-15.81 16.56,-33.23 16.56,-52.13 0,-12.73 -2.84,-23.1 -8.53,-31.26 -5.68,-8.15 -13.58,-14.08 -23.84,-17.78 -10.26,-3.7 -33.11,-5.56 -68.56,-5.56l-78.19 0 -31.88 151.94zm844.24 54.11l-205.93 0 -49.65 237.18 -109.09 0 111.19 -530.7 108.96 0 -42.86 204.57 206.04 0 42.87 -204.57 108.96 0 -111.06 530.7 -109.08 0 49.65 -237.18zm145.9 237.18l111.17 -530.7 392.84 0 -18.53 88.94 -284.01 0 -26.06 120.08 275.22 0 -18.53 88.95 -276.09 0 -31.38 143.8 308.21 0 -18.53 88.94 -414.33 0zm818.55 -117.12l-210.5 0 -64.25 117.12 -113.16 0 299.58 -530.7 123.41 0 85.72 530.7 -103.52 0 -17.28 -117.12zm-13.1 -88.94l-31.5 -213.46 -117.12 213.46 148.62 0zm179.24 206.06l111.19 -530.7 108.96 0 -92.52 441.76 270.41 0 -18.53 88.94 -379.5 0zm601.74 0l-109.07 0 92.52 -441.76 -155.78 0 17.8 -88.94 418.04 0 -17.79 88.94 -153.19 0 -92.52 441.76zm563.31 -237.18l-205.93 0 -49.65 237.18 -109.09 0 111.19 -530.7 108.95 0 -42.85 204.57 206.04 0 42.87 -204.57 108.96 0 -111.06 530.7 -109.07 0 49.65 -237.18z"/>
  </g>
  <g id="_2203383053504">
   <path class="fil2" d="M1640.47 4830.89l-266.63 -942.51 0 942.51 -635.44 0 0 -1712.8 904.35 0 198.16 710.51 196.26 -710.51 907.75 0 0 1712.8 -638.9 0 0 -942.51 -263.17 942.51 -402.39 0zm2136.98 -390.57l0 -208.87 -72.94 31.98c-33.87,15.88 -57.49,34.14 -71.48,55.6 -13.88,21.04 -21.07,51.68 -21.07,91.76l0 29.53c0,36.56 6.86,63.63 20.32,81.54 13.59,17.97 34.27,26.72 61.35,26.72 29.3,0 50.76,-8.43 63.9,-25.64 13.2,-17.22 19.93,-44.66 19.93,-82.61zm-2.22 -541.43l0 -57.66c0,-39.72 -6.04,-67.81 -18.85,-83.66 -12.35,-15.84 -33.45,-23.58 -62.76,-23.58 -27.08,0 -47.37,8.46 -60.17,25.67 -12.8,17.19 -19.17,44.3 -19.17,81.57l0 44.33 -516.66 0 0 -97.09c0,-114.6 25.9,-194.76 78.53,-240.07 52.69,-45.37 144.48,-67.91 276.07,-67.91l497.09 0c130.47,0 222.24,22.9 274.86,68.57 52.3,45.77 78.59,125.54 78.59,239.42l0 1042.41 -514.41 0 0 -84.35c-54.16,31.92 -108.33,55.89 -162.06,71.38 -53.38,15.45 -109.4,23.16 -167.32,23.16 -119.95,0 -210.96,-33.71 -273.78,-100.88 -62.79,-67.16 -94.41,-165.23 -94.41,-293.55l0 -54.52c0,-82.29 16.56,-145.89 49.69,-190.55 33.09,-44.65 91.73,-83.66 176.33,-117.41l458.42 -185.29zm688.13 931.99l0 -1346.08 516.63 0 0 84.31c53.77,-31.62 106.82,-54.85 159.06,-69.94 52.69,-15.13 108.68,-22.87 168.1,-22.87 120.7,0 212.44,33.42 275.65,100.58 63.15,66.77 94.77,164.15 94.77,292.11l0 961.88 -533.22 0 0 -938.26c0,-35.9 -6.04,-61.94 -18.03,-78.83 -12.41,-16.85 -30.87,-25.31 -56.02,-25.31 -26.33,0 -45.51,8.1 -57.17,24.66 -11.63,16.53 -17.7,42.89 -17.7,79.48l0 938.26 -532.05 0zm2583.28 -303.74c0,114.6 -26.3,194.76 -78.6,240.14 -52.63,45.34 -144.75,67.85 -276.04,67.85l-523.39 0c-130.5,0 -222.23,-22.15 -274.11,-66.81 -52.23,-44.65 -78.2,-125.21 -78.2,-241.18l0 -166.63 539.63 0 0 112.11c0,35.18 6.33,60.86 18.39,77.75 12.06,16.85 30.41,25.28 55.63,25.28 26.36,0 45.5,-8.1 57.17,-24.24 11.66,-16.17 17.64,-42.24 17.64,-78.79l0 -35.83c0,-31.62 -10.13,-58.38 -30.45,-79.81 -19.93,-21.82 -51.52,-39.43 -94.02,-53.05l-308.67 -99.18c-95.94,-31.62 -160.98,-67.49 -194.73,-107.9 -33.91,-40.8 -50.8,-101.3 -50.8,-181.43l0 -126.94c0,-114.6 25.91,-194.76 78.21,-240.07 52.2,-45.37 144,-67.91 275.61,-67.91l512.09 0c131.29,0 223.41,22.9 276.04,68.57 52.3,45.77 78.6,125.54 78.6,239.42l0 90.72 -535.09 0 0 -33.03c0,-35.48 -6.41,-61.87 -18.46,-78.79 -12.02,-16.83 -30.45,-25.32 -55.6,-25.32 -21.85,0 -39.85,7.45 -53.77,21.85 -13.95,14.41 -21.07,32.31 -21.07,54.49 0,29.53 8.26,52.69 25.22,69.61 16.86,16.86 57.53,35.8 121.43,57.3l232.39 76.31c119.59,38.28 200.41,81.93 242.13,130.76 41.78,48.87 62.82,119.53 62.82,212.34l0 162.42zm144.39 303.74l0 -2015.76c18.49,-283.58 543.42,-262.61 532.08,0l0 745.56c46.29,-28.09 95.16,-49.2 146.71,-63.24 51.52,-14.11 106.43,-21.14 165.03,-21.14 120.7,0 212.5,33.42 275.61,100.58 63.18,66.77 94.77,164.15 94.77,292.11l0 961.88 -533.22 0 0 -938.26c0,-35.9 -5.95,-61.94 -18,-78.83 -12.41,-16.85 -30.84,-25.31 -56.09,-25.31 -26.26,0 -45.44,8.1 -57.1,24.66 -11.66,16.53 -17.7,42.89 -17.7,79.48l0 938.26 -532.08 0zm2282.94 -98.79c-27.86,110.39 -54.22,188.43 -78.99,234.19 -24.46,45.67 -56.45,84.35 -95.19,115.97 -43.94,35.51 -93.23,61.19 -147.79,76.31 -54.13,15.09 -136.45,22.51 -246.6,22.51l-402 0 0 -257.35 174.08 0c49.62,0 85.75,-8.46 107.22,-25.68 21.76,-17.25 32.67,-45.01 32.67,-83.66 0,-16.2 -0.69,-30.97 -2.22,-43.65 -1.5,-12.64 -3.76,-23.52 -6.76,-32.31l-335.78 -1253.63 547.47 0 115.48 888.67 116.95 -888.67 548.61 0 -327.13 1247.29zm1087.81 -291.78l0 -208.87 -72.94 31.98c-33.84,15.88 -57.53,34.14 -71.44,55.6 -13.91,21.04 -21.04,51.68 -21.04,91.76l0 29.53c0,36.56 6.76,63.63 20.25,81.54 13.56,17.97 34.27,26.72 61.32,26.72 29.33,0 50.76,-8.43 63.93,-25.64 13.17,-17.22 19.93,-44.66 19.93,-82.61zm-2.22 -541.43l0 -57.66c0,-39.72 -6.07,-67.81 -18.81,-83.66 -12.41,-15.84 -33.48,-23.58 -62.82,-23.58 -27.05,0 -47.37,8.46 -60.17,25.67 -12.81,17.19 -19.18,44.3 -19.18,81.57l0 44.33 -516.63 0 0 -97.09c0,-114.6 25.91,-194.76 78.56,-240.07 52.66,-45.37 144.42,-67.91 276.04,-67.91l497.09 0c130.44,0 222.23,22.9 274.86,68.57 52.26,45.77 78.56,125.54 78.56,239.42l0 1042.41 -514.38 0 0 -84.35c-54.19,31.92 -108.32,55.89 -162.06,71.38 -53.38,15.45 -109.44,23.16 -167.35,23.16 -119.92,0 -210.96,-33.71 -273.75,-100.88 -62.76,-67.16 -94.34,-165.23 -94.34,-293.55l0 -54.52c0,-82.29 16.5,-145.89 49.62,-190.55 33.06,-44.65 91.73,-83.66 176.37,-117.41l458.39 -185.29z"/>
   <polygon class="fil3" points="8408.17,4924.16 738.34,4924.16 738.34,5181.57 8408.17,5181.57 "/>
   <path class="fil3" d="M5491.92 2400.37c-10.94,17.77 509.21,-2.06 976.26,250.13 467.07,252.13 732.17,645.44 719.85,665.43 -12.38,19.96 -509.22,1.99 -976.29,-250.1 -467.07,-252.16 -708.81,-683.23 -719.82,-665.46z"/>
   <path class="fil3" d="M9133.61 1799.94c-15.58,-14.5 -129.76,460.38 -511.11,816.94 -381.42,356.56 -856.37,494.16 -873.78,477.79 -17.51,-16.24 129.72,-460.31 511.07,-816.91 381.36,-356.59 889.3,-463.32 873.81,-477.82z"/>
  </g>
 </g>
</svg>
